{
  "asset": {
    "version": "2.0",
    "generator": "THREE.JS GLTFExporter"
  },
  "scenes": [
    {
      "nodes": [
        10
      ],
      "name": "AuxScene"
    }
  ],
  "scene": 0,
  "nodes": [
    {
      "mesh": 0
    },
    {
      "children": [
        0
      ]
    },
    {
      "mesh": 1
    },
    {
      "children": [
        2
      ]
    },
    {
      "mesh": 2
    },
    {
      "children": [
        4
      ]
    },
    {
      "mesh": 3
    },
    {
      "children": [
        6
      ]
    },
    {
      "mesh": 4
    },
    {
      "children": [
        8
      ]
    },
    {
      "children": [
        1,
        3,
        5,
        7,
        9
      ]
    }
  ],
  "meshes": [
    {
      "primitives": [
        {
          "mode": 5,
          "attributes": {
            "POSITION": 0,
            "TEXCOORD_0": 1,
            "NORMAL": 2,
            "COLOR_0": 3
          },
          "material": 0
        }
      ]
    },
    {
      "primitives": [
        {
          "mode": 5,
          "attributes": {
            "POSITION": 4,
            "TEXCOORD_0": 5,
            "NORMAL": 6,
            "COLOR_0": 7
          },
          "material": 1
        }
      ]
    },
    {
      "primitives": [
        {
          "mode": 5,
          "attributes": {
            "POSITION": 8,
            "TEXCOORD_0": 9,
            "NORMAL": 10,
            "COLOR_0": 11
          },
          "material": 2
        }
      ]
    },
    {
      "primitives": [
        {
          "mode": 4,
          "attributes": {
            "POSITION": 12,
            "TEXCOORD_0": 13,
            "NORMAL": 14,
            "COLOR_0": 15
          },
          "material": 3
        }
      ]
    },
    {
      "primitives": [
        {
          "mode": 4,
          "attributes": {
            "POSITION": 16,
            "TEXCOORD_0": 17,
            "NORMAL": 18,
            "COLOR_0": 19
          },
          "material": 4
        }
      ]
    }
  ],
  "materials": [
    {
      "pbrMetallicRoughness": {
        "metallicFactor": 0.5,
        "roughnessFactor": 0.5
      },
      "doubleSided": true
    },
    {
      "pbrMetallicRoughness": {
        "metallicFactor": 0.25,
        "roughnessFactor": 0.75,
        "baseColorTexture": {
          "index": 0
        }
      },
      "doubleSided": true
    },
    {
      "pbrMetallicRoughness": {
        "metallicFactor": 0.25,
        "roughnessFactor": 0.75,
        "baseColorTexture": {
          "index": 1
        }
      },
      "alphaMode": "MASK",
      "doubleSided": true
    },
    {
      "pbrMetallicRoughness": {
        "metallicFactor": 0.5,
        "roughnessFactor": 0.5,
        "baseColorTexture": {
          "index": 2
        }
      },
      "alphaMode": "MASK",
      "doubleSided": true
    },
    {
      "pbrMetallicRoughness": {
        "metallicFactor": 0.25,
        "roughnessFactor": 0.75,
        "baseColorTexture": {
          "index": 3
        }
      },
      "alphaMode": "MASK",
      "doubleSided": true
    }
  ],
  "accessors": [
    {
      "bufferView": 0,
      "componentType": 5126,
      "count": 0,
      "max": [
        0.10187181830406189,
        1.7322039604187012,
        0
      ],
      "min": [
        -0.0794554203748703,
        0,
        -0.24524033069610596
      ],
      "type": "VEC3"
    },
    {
      "bufferView": 1,
      "componentType": 5126,
      "count": 0,
      "max": [
        0,
        0
      ],
      "min": [
        0,
        0
      ],
      "type": "VEC2"
    },
    {
      "bufferView": 2,
      "componentType": 5126,
      "count": 0,
      "max": [
        0.6241695880889893,
        0.8215895295143127,
        0.9484708905220032
      ],
      "min": [
        -0.7897816300392151,
        -0.7333157658576965,
        -0.9273677468299866
      ],
      "type": "VEC3"
    },
    {
      "bufferView": 3,
      "componentType": 5126,
      "count": 0,
      "max": [
        0.007843137718737125,
        0.06666667014360428,
        1
      ],
      "min": [
        0,
        0,
        0
      ],
      "type": "VEC3"
    },
    {
      "bufferView": 4,
      "componentType": 5126,
      "count": 0,
      "max": [
        0.05051877349615097,
        1.757177710533142,
        0
      ],
      "min": [
        -0.14707881212234497,
        0,
        -0.3031368851661682
      ],
      "type": "VEC3"
    },
    {
      "bufferView": 5,
      "componentType": 5126,
      "count": 0,
      "max": [
        0,
        0
      ],
      "min": [
        0,
        0
      ],
      "type": "VEC2"
    },
    {
      "bufferView": 6,
      "componentType": 5126,
      "count": 0,
      "max": [
        0.6826692223548889,
        0.7305036783218384,
        0.9693314433097839
      ],
      "min": [
        -0.7624592781066895,
        -0.6737406253814697,
        -0.957522451877594
      ],
      "type": "VEC3"
    },
    {
      "bufferView": 7,
      "componentType": 5126,
      "count": 0,
      "max": [
        0.007843137718737125,
        0.06666667014360428,
        1
      ],
      "min": [
        0,
        0,
        0
      ],
      "type": "VEC3"
    },
    {
      "bufferView": 8,
      "componentType": 5126,
      "count": 8245,
      "max": [
        0.5718539357185364,
        2.106696844100952,
        0.12260320782661438
      ],
      "min": [
        -0.43746262788772583,
        0,
        -0.5082409381866455
      ],
      "type": "VEC3"
    },
    {
      "bufferView": 9,
      "componentType": 5126,
      "count": 8245,
      "max": [
        null,
        0.739130437374115
      ],
      "min": [
        null,
        0
      ],
      "type": "VEC2"
    },
    {
      "bufferView": 10,
      "componentType": 5126,
      "count": 8245,
      "max": [
        0.9511050581932068,
        0.9996839761734009,
        0.9994944930076599
      ],
      "min": [
        -0.966197669506073,
        -0.9964149594306946,
        -0.9995658993721008
      ],
      "type": "VEC3"
    },
    {
      "bufferView": 11,
      "componentType": 5126,
      "count": 8245,
      "max": [
        1,
        1,
        1
      ],
      "min": [
        0,
        0,
        0
      ],
      "type": "VEC3"
    },
    {
      "bufferView": 12,
      "componentType": 5126,
      "count": 0,
      "max": [
        0,
        0,
        0
      ],
      "min": [
        0,
        0,
        0
      ],
      "type": "VEC3"
    },
    {
      "bufferView": 13,
      "componentType": 5126,
      "count": 0,
      "max": [
        0,
        0
      ],
      "min": [
        0,
        0
      ],
      "type": "VEC2"
    },
    {
      "bufferView": 14,
      "componentType": 5126,
      "count": 0,
      "max": [
        0,
        0,
        0
      ],
      "min": [
        0,
        0,
        0
      ],
      "type": "VEC3"
    },
    {
      "bufferView": 15,
      "componentType": 5126,
      "count": 0,
      "max": [
        0,
        0,
        0
      ],
      "min": [
        0,
        0,
        0
      ],
      "type": "VEC3"
    },
    {
      "bufferView": 16,
      "componentType": 5126,
      "count": 0,
      "max": [
        0,
        0,
        0
      ],
      "min": [
        0,
        0,
        0
      ],
      "type": "VEC3"
    },
    {
      "bufferView": 17,
      "componentType": 5126,
      "count": 0,
      "max": [
        0,
        0
      ],
      "min": [
        0,
        0
      ],
      "type": "VEC2"
    },
    {
      "bufferView": 18,
      "componentType": 5126,
      "count": 0,
      "max": [
        0,
        0,
        0
      ],
      "min": [
        0,
        0,
        0
      ],
      "type": "VEC3"
    },
    {
      "bufferView": 19,
      "componentType": 5126,
      "count": 0,
      "max": [
        0,
        0,
        0
      ],
      "min": [
        0,
        0,
        0
      ],
      "type": "VEC3"
    }
  ],
  "bufferViews": [
    {
      "buffer": 0,
      "byteOffset": 0,
      "byteLength": 0,
      "byteStride": 12,
      "target": 34962
    },
    {
      "buffer": 0,
      "byteOffset": 0,
      "byteLength": 0,
      "byteStride": 8,
      "target": 34962
    },
    {
      "buffer": 0,
      "byteOffset": 0,
      "byteLength": 0,
      "byteStride": 12,
      "target": 34962
    },
    {
      "buffer": 0,
      "byteOffset": 0,
      "byteLength": 0,
      "byteStride": 12,
      "target": 34962
    },
    {
      "buffer": 0,
      "byteOffset": 0,
      "byteLength": 0,
      "byteStride": 12,
      "target": 34962
    },
    {
      "buffer": 0,
      "byteOffset": 0,
      "byteLength": 0,
      "byteStride": 8,
      "target": 34962
    },
    {
      "buffer": 0,
      "byteOffset": 0,
      "byteLength": 0,
      "byteStride": 12,
      "target": 34962
    },
    {
      "buffer": 0,
      "byteOffset": 0,
      "byteLength": 0,
      "byteStride": 12,
      "target": 34962
    },
    {
      "buffer": 0,
      "byteOffset": 0,
      "byteLength": 98940,
      "byteStride": 12,
      "target": 34962
    },
    {
      "buffer": 0,
      "byteOffset": 98940,
      "byteLength": 65960,
      "byteStride": 8,
      "target": 34962
    },
    {
      "buffer": 0,
      "byteOffset": 164900,
      "byteLength": 98940,
      "byteStride": 12,
      "target": 34962
    },
    {
      "buffer": 0,
      "byteOffset": 263840,
      "byteLength": 98940,
      "byteStride": 12,
      "target": 34962
    },
    {
      "buffer": 0,
      "byteOffset": 362780,
      "byteLength": 0,
      "byteStride": 12,
      "target": 34962
    },
    {
      "buffer": 0,
      "byteOffset": 362780,
      "byteLength": 0,
      "byteStride": 8,
      "target": 34962
    },
    {
      "buffer": 0,
      "byteOffset": 362780,
      "byteLength": 0,
      "byteStride": 12,
      "target": 34962
    },
    {
      "buffer": 0,
      "byteOffset": 362780,
      "byteLength": 0,
      "byteStride": 12,
      "target": 34962
    },
    {
      "buffer": 0,
      "byteOffset": 362780,
      "byteLength": 0,
      "byteStride": 12,
      "target": 34962
    },
    {
      "buffer": 0,
      "byteOffset": 362780,
      "byteLength": 0,
      "byteStride": 8,
      "target": 34962
    },
    {
      "buffer": 0,
      "byteOffset": 362780,
      "byteLength": 0,
      "byteStride": 12,
      "target": 34962
    },
    {
      "buffer": 0,
      "byteOffset": 362780,
      "byteLength": 0,
      "byteStride": 12,
      "target": 34962
    }
  ],
  "buffers": [
    {
      "byteLength": 362780,
      "uri": "data:application/octet-stream;base64,"
    }
  ],
  "textures": [
    {
      "sampler": 0,
      "source": 0
    },
    {
      "sampler": 1,
      "source": 1
    },
    {
      "sampler": 2,
      "source": 1
    },
    {
      "sampler": 3,
      "source": 1
    }
  ],
  "samplers": [
    {
      "magFilter": 9729,
      "minFilter": 9987
    },
    {
      "magFilter": 9729,
      "minFilter": 9987
    },
    {
      "magFilter": 9729,
      "minFilter": 9987
    },
    {
      "magFilter": 9729,
      "minFilter": 9987
    }
  ],
  "images": [
    {
      "uri": "https://aframe.io/a-painter/assets/images/brush_atlas.png"
    },
    {
      "uri": "https://aframe.io/a-painter/assets/images/brush_atlas.png"
    }
  ]
}