{
  "accessors": [
    {
      "bufferView": 2,
      "componentType": 5126,
      "count": 65534,
      "max": [
        24.391376495361328,
        16.310600280761719,
        3.2265141010284424
      ],
      "min": [
        -22.447046279907227,
        -27.904321670532227,
        -33.137458801269531
      ],
      "type": "VEC3"
    },
    {
      "bufferView": 2,
      "byteOffset": 786408,
      "componentType": 5126,
      "count": 65534,
      "max": [
        0.9999116063117981,
        0.99993133544921875,
        0.99987560510635376
      ],
      "min": [
        -0.99995326995849609,
        -0.99999743700027466,
        -0.99998372793197632
      ],
      "type": "VEC3"
    },
    {
      "bufferView": 3,
      "componentType": 5126,
      "count": 65534,
      "max": [
        1,
        1,
        0.47843137383460999,
        1
      ],
      "min": [
        0.098039217293262482,
        0,
        0,
        1
      ],
      "type": "VEC4"
    },
    {
      "bufferView": 1,
      "componentType": 5126,
      "count": 65534,
      "max": [
        0,
        0
      ],
      "min": [
        0,
        0
      ],
      "type": "VEC2"
    },
    {
      "bufferView": 0,
      "componentType": 5125,
      "count": 65550,
      "max": [
        65533
      ],
      "min": [
        0
      ],
      "type": "SCALAR"
    },
    {
      "bufferView": 2,
      "byteOffset": 1572816,
      "componentType": 5126,
      "count": 65533,
      "max": [
        39.634159088134766,
        23.991657257080078,
        14.399554252624512
      ],
      "min": [
        -10.75956916809082,
        -14.588837623596191,
        -22.029033660888672
      ],
      "type": "VEC3"
    },
    {
      "bufferView": 2,
      "byteOffset": 2359212,
      "componentType": 5126,
      "count": 65533,
      "max": [
        0.99981528520584106,
        0.99994522333145142,
        0.9999244213104248
      ],
      "min": [
        -0.99998015165328979,
        -0.99984365701675415,
        -0.99971330165863037
      ],
      "type": "VEC3"
    },
    {
      "bufferView": 3,
      "byteOffset": 1048544,
      "componentType": 5126,
      "count": 65533,
      "max": [
        0.098039217293262482,
        1,
        1,
        1
      ],
      "min": [
        0,
        0.023529412224888802,
        0,
        1
      ],
      "type": "VEC4"
    },
    {
      "bufferView": 1,
      "byteOffset": 524272,
      "componentType": 5126,
      "count": 65533,
      "max": [
        0,
        0
      ],
      "min": [
        0,
        0
      ],
      "type": "VEC2"
    },
    {
      "bufferView": 0,
      "byteOffset": 262200,
      "componentType": 5125,
      "count": 65559,
      "max": [
        65532
      ],
      "min": [
        0
      ],
      "type": "SCALAR"
    },
    {
      "bufferView": 2,
      "byteOffset": 3145608,
      "componentType": 5126,
      "count": 65533,
      "max": [
        4.9693751335144043,
        29.416763305664062,
        23.598388671875
      ],
      "min": [
        -30.958999633789062,
        -15.465949058532715,
        -22.704414367675781
      ],
      "type": "VEC3"
    },
    {
      "bufferView": 2,
      "byteOffset": 3932004,
      "componentType": 5126,
      "count": 65533,
      "max": [
        0.9999576210975647,
        0.99997282028198242,
        0.99995309114456177
      ],
      "min": [
        -0.99988079071044922,
        -0.99991023540496826,
        -0.99996066093444824
      ],
      "type": "VEC3"
    },
    {
      "bufferView": 3,
      "byteOffset": 2097072,
      "componentType": 5126,
      "count": 65533,
      "max": [
        1,
        1,
        1,
        1
      ],
      "min": [
        0,
        0,
        0,
        1
      ],
      "type": "VEC4"
    },
    {
      "bufferView": 1,
      "byteOffset": 1048536,
      "componentType": 5126,
      "count": 65533,
      "max": [
        0,
        0
      ],
      "min": [
        0,
        0
      ],
      "type": "VEC2"
    },
    {
      "bufferView": 0,
      "byteOffset": 524436,
      "componentType": 5125,
      "count": 65547,
      "max": [
        65532
      ],
      "min": [
        0
      ],
      "type": "SCALAR"
    },
    {
      "bufferView": 2,
      "byteOffset": 4718400,
      "componentType": 5126,
      "count": 65533,
      "max": [
        11.976153373718262,
        12.57841968536377,
        36.976089477539062
      ],
      "min": [
        -25.706214904785156,
        -24.855945587158203,
        -2.2979629039764404
      ],
      "type": "VEC3"
    },
    {
      "bufferView": 2,
      "byteOffset": 5504796,
      "componentType": 5126,
      "count": 65533,
      "max": [
        0.99999338388442993,
        0.99998366832733154,
        0.99993348121643066
      ],
      "min": [
        -0.9998161792755127,
        -0.99997836351394653,
        -0.99995511770248413
      ],
      "type": "VEC3"
    },
    {
      "bufferView": 3,
      "byteOffset": 3145600,
      "componentType": 5126,
      "count": 65533,
      "max": [
        0.13725490868091583,
        1,
        1,
        1
      ],
      "min": [
        0,
        0.062745101749897003,
        0,
        1
      ],
      "type": "VEC4"
    },
    {
      "bufferView": 1,
      "byteOffset": 1572800,
      "componentType": 5126,
      "count": 65533,
      "max": [
        0,
        0
      ],
      "min": [
        0,
        0
      ],
      "type": "VEC2"
    },
    {
      "bufferView": 0,
      "byteOffset": 786624,
      "componentType": 5125,
      "count": 65559,
      "max": [
        65532
      ],
      "min": [
        0
      ],
      "type": "SCALAR"
    },
    {
      "bufferView": 2,
      "byteOffset": 6291192,
      "componentType": 5126,
      "count": 65534,
      "max": [
        38.507526397705078,
        28.863409042358398,
        36.183055877685547
      ],
      "min": [
        -26.591159820556641,
        -26.173870086669922,
        -28.848758697509766
      ],
      "type": "VEC3"
    },
    {
      "bufferView": 2,
      "byteOffset": 7077600,
      "componentType": 5126,
      "count": 65534,
      "max": [
        0.99993342161178589,
        1,
        0.99984103441238403
      ],
      "min": [
        -0.99993348121643066,
        -1,
        -0.99984109401702881
      ],
      "type": "VEC3"
    },
    {
      "bufferView": 3,
      "byteOffset": 4194128,
      "componentType": 5126,
      "count": 65534,
      "max": [
        1,
        1,
        1,
        1
      ],
      "min": [
        0,
        0,
        0,
        1
      ],
      "type": "VEC4"
    },
    {
      "bufferView": 1,
      "byteOffset": 2097064,
      "componentType": 5126,
      "count": 65534,
      "max": [
        0,
        0
      ],
      "min": [
        0,
        0
      ],
      "type": "VEC2"
    },
    {
      "bufferView": 0,
      "byteOffset": 1048860,
      "componentType": 5125,
      "count": 80925,
      "max": [
        65533
      ],
      "min": [
        0
      ],
      "type": "SCALAR"
    },
    {
      "bufferView": 2,
      "byteOffset": 7864008,
      "componentType": 5126,
      "count": 65532,
      "max": [
        24.942790985107422,
        20.225946426391602,
        22.764297485351562
      ],
      "min": [
        -22.994983673095703,
        -26.349697113037109,
        -27.160671234130859
      ],
      "type": "VEC3"
    },
    {
      "bufferView": 2,
      "byteOffset": 8650392,
      "componentType": 5126,
      "count": 65532,
      "max": [
        0.99952280521392822,
        0.99451267719268799,
        0.99778234958648682
      ],
      "min": [
        -0.99919265508651733,
        -0.99334198236465454,
        -0.99929702281951904
      ],
      "type": "VEC3"
    },
    {
      "bufferView": 3,
      "byteOffset": 5242672,
      "componentType": 5126,
      "count": 65532,
      "max": [
        1,
        1,
        1,
        1
      ],
      "min": [
        0.18431372940540314,
        0.050980392843484879,
        0.050980392843484879,
        1
      ],
      "type": "VEC4"
    },
    {
      "bufferView": 1,
      "byteOffset": 2621336,
      "componentType": 5126,
      "count": 65532,
      "max": [
        0,
        0
      ],
      "min": [
        0,
        0
      ],
      "type": "VEC2"
    },
    {
      "bufferView": 0,
      "byteOffset": 1372560,
      "componentType": 5125,
      "count": 85062,
      "max": [
        65531
      ],
      "min": [
        0
      ],
      "type": "SCALAR"
    },
    {
      "bufferView": 2,
      "byteOffset": 9436776,
      "componentType": 5126,
      "count": 29271,
      "max": [
        37.283493041992188,
        28.437826156616211,
        35.37811279296875
      ],
      "min": [
        -30.341293334960938,
        -26.792415618896484,
        -32.394737243652344
      ],
      "type": "VEC3"
    },
    {
      "bufferView": 2,
      "byteOffset": 9788028,
      "componentType": 5126,
      "count": 29271,
      "max": [
        0.9996756911277771,
        0.99942874908447266,
        0.99995201826095581
      ],
      "min": [
        -0.99967563152313232,
        -0.99942874908447266,
        -0.99995207786560059
      ],
      "type": "VEC3"
    },
    {
      "bufferView": 3,
      "byteOffset": 6291184,
      "componentType": 5126,
      "count": 29271,
      "max": [
        1,
        1,
        1,
        1
      ],
      "min": [
        1,
        1,
        1,
        1
      ],
      "type": "VEC4"
    },
    {
      "bufferView": 1,
      "byteOffset": 3145592,
      "componentType": 5126,
      "count": 29271,
      "max": [
        0,
        0
      ],
      "min": [
        0,
        0
      ],
      "type": "VEC2"
    },
    {
      "bufferView": 0,
      "byteOffset": 1712808,
      "componentType": 5125,
      "count": 54594,
      "max": [
        29270
      ],
      "min": [
        0
      ],
      "type": "SCALAR"
    }
  ],
  "asset": {
    "extras": {
      "author": "real3d (https://sketchfab.com/real3d)",
      "license": "CC-BY-4.0 (http://creativecommons.org/licenses/by/4.0/)",
      "source": "https://sketchfab.com/3d-models/sars-coronavirus-main-protease-d903e7dec27c404582ec38ed11c4b262",
      "title": "SARS coronavirus main protease"
    },
    "generator": "Sketchfab-7.53.0",
    "version": "2.0"
  },
  "bufferViews": [
    {
      "buffer": 0,
      "byteLength": 1931184,
      "byteOffset": 0,
      "name": "floatBufferViews",
      "target": 34963
    },
    {
      "buffer": 0,
      "byteLength": 3379760,
      "byteOffset": 1931184,
      "byteStride": 8,
      "name": "floatBufferViews",
      "target": 34962
    },
    {
      "buffer": 0,
      "byteLength": 10139280,
      "byteOffset": 5310944,
      "byteStride": 12,
      "name": "floatBufferViews",
      "target": 34962
    },
    {
      "buffer": 0,
      "byteLength": 6759520,
      "byteOffset": 15450224,
      "byteStride": 16,
      "name": "floatBufferViews",
      "target": 34962
    }
  ],
  "buffers": [
    {
      "byteLength": 22209744,
      "uri": "scene.bin"
    }
  ],
  "materials": [
    {
      "doubleSided": true,
      "emissiveFactor": [
        0,
        0,
        0
      ],
      "name": "material_0",
      "pbrMetallicRoughness": {
        "baseColorFactor": [
          0.80000000000000004,
          0.80000000000000004,
          0.80000000000000004,
          1
        ],
        "metallicFactor": 0,
        "roughnessFactor": 0.59999999999999998
      }
    }
  ],
  "meshes": [
    {
      "primitives": [
        {
          "attributes": {
            "COLOR_0": 2,
            "NORMAL": 1,
            "POSITION": 0,
            "TEXCOORD_0": 3
          },
          "indices": 4,
          "material": 0,
          "mode": 4
        }
      ]
    },
    {
      "primitives": [
        {
          "attributes": {
            "COLOR_0": 7,
            "NORMAL": 6,
            "POSITION": 5,
            "TEXCOORD_0": 8
          },
          "indices": 9,
          "material": 0,
          "mode": 4
        }
      ]
    },
    {
      "primitives": [
        {
          "attributes": {
            "COLOR_0": 12,
            "NORMAL": 11,
            "POSITION": 10,
            "TEXCOORD_0": 13
          },
          "indices": 14,
          "material": 0,
          "mode": 4
        }
      ]
    },
    {
      "primitives": [
        {
          "attributes": {
            "COLOR_0": 17,
            "NORMAL": 16,
            "POSITION": 15,
            "TEXCOORD_0": 18
          },
          "indices": 19,
          "material": 0,
          "mode": 4
        }
      ]
    },
    {
      "primitives": [
        {
          "attributes": {
            "COLOR_0": 22,
            "NORMAL": 21,
            "POSITION": 20,
            "TEXCOORD_0": 23
          },
          "indices": 24,
          "material": 0,
          "mode": 4
        }
      ]
    },
    {
      "primitives": [
        {
          "attributes": {
            "COLOR_0": 27,
            "NORMAL": 26,
            "POSITION": 25,
            "TEXCOORD_0": 28
          },
          "indices": 29,
          "material": 0,
          "mode": 4
        }
      ]
    },
    {
      "primitives": [
        {
          "attributes": {
            "COLOR_0": 32,
            "NORMAL": 31,
            "POSITION": 30,
            "TEXCOORD_0": 33
          },
          "indices": 34,
          "material": 0,
          "mode": 4
        }
      ]
    }
  ],
  "nodes": [
    {
      "children": [
        1
      ],
      "name": "RootNode (gltf orientation matrix)",
      "rotation": [
        -0.70710678118654746,
        -0,
        -0,
        0.70710678118654757
      ]
    },
    {
      "children": [
        2
      ],
      "name": "RootNode (model correction matrix)"
    },
    {
      "children": [
        3
      ],
      "matrix": [
        1,
        0,
        0,
        0,
        0,
        0,
        1,
        0,
        0,
        -1,
        0,
        0,
        0,
        0,
        0,
        1
      ],
      "name": "d6338d92c49245f691b42d37f59b2e07.wrl.cleaner.materialmerger.gles"
    },
    {
      "children": [
        4
      ],
      "name": "Shape_Cylinder_597_TRANSFORM"
    },
    {
      "children": [
        5
      ],
      "matrix": [
        0.57564151287078857,
        -0.67859393358230591,
        -0.45623147487640381,
        0,
        0.67859393358230591,
        0.085143089294433594,
        0.72956216335296631,
        0,
        -0.45623147487640381,
        -0.72956216335296631,
        0.50950157642364502,
        0,
        0,
        0,
        0,
        1
      ],
      "name": ""
    },
    {
      "children": [
        6
      ],
      "name": "Shape_Cylinder_597_ifs_TRANSFORM"
    },
    {
      "children": [
        7,
        8,
        9,
        10,
        11,
        12,
        13
      ],
      "name": "group_ME_Shape_Cylinder_597"
    },
    {
      "mesh": 0,
      "name": ""
    },
    {
      "mesh": 1,
      "name": ""
    },
    {
      "mesh": 2,
      "name": ""
    },
    {
      "mesh": 3,
      "name": ""
    },
    {
      "mesh": 4,
      "name": ""
    },
    {
      "mesh": 5,
      "name": ""
    },
    {
      "mesh": 6,
      "name": ""
    }
  ],
  "scene": 0,
  "scenes": [
    {
      "name": "OSG_Scene",
      "nodes": [
        0
      ]
    }
  ]
}

